<svg width="130" height="20" viewBox="0 0 130 20" fill="none" xmlns="http://www.w3.org/2000/svg">
<path d="M1.44158 12.4303H0V3.08318H1.44158V7.15854H6.31639V3.08318H7.75797V12.4303H6.31639V8.16803H1.44158V12.4303Z" fill="#224CFF"/>
<path d="M11.9184 6.13035L10.6096 5.71908C10.8245 4.7719 11.2734 4.06775 11.9563 3.60662C12.6391 3.13303 13.5117 2.89624 14.5739 2.89624C15.7879 2.89624 16.6857 3.1455 17.2674 3.64401C17.8491 4.13006 18.1399 4.87783 18.1399 5.88732V11.2713H19.7143V12.4303H16.5845L16.6983 11.2526V10.0001L15.4275 11.8695C15.1113 12.1187 14.7446 12.3057 14.3273 12.4303C13.9227 12.5425 13.5054 12.5986 13.0754 12.5986C12.3293 12.5986 11.7097 12.3742 11.2165 11.9256C10.7234 11.4769 10.4768 10.8475 10.4768 10.0375C10.4768 9.2523 10.7107 8.69147 11.1786 8.35497C11.6591 8.00601 12.2218 7.74429 12.8668 7.56981C13.5243 7.39533 14.2072 7.23954 14.9153 7.10245C15.6361 6.96536 16.2304 6.70987 16.6983 6.33599V5.94341C16.6983 5.33273 16.515 4.85291 16.1483 4.50395C15.7942 4.14253 15.2378 3.96181 14.4791 3.96181C13.6824 3.96181 13.1007 4.14253 12.734 4.50395C12.3673 4.85291 12.0954 5.39504 11.9184 6.13035ZM12.0132 9.83182C12.0132 10.3677 12.1649 10.7852 12.4684 11.0843C12.7846 11.371 13.1766 11.5143 13.6445 11.5143C14.2641 11.5143 14.8268 11.3336 15.3326 10.9722C15.8511 10.6107 16.3063 10.0125 16.6983 9.17752V6.59771C16.3569 6.99652 15.9206 7.2894 15.3895 7.47634C14.8584 7.65082 14.34 7.8253 13.8341 7.99978C13.341 8.1618 12.911 8.37366 12.5443 8.63538C12.1902 8.8971 12.0132 9.29591 12.0132 9.83182Z" fill="#224CFF"/>
<path d="M21.3263 7.75675C21.3263 7.04637 21.4464 6.39207 21.6866 5.79385C21.9269 5.19564 22.2557 4.68466 22.673 4.26092C23.0903 3.83719 23.5835 3.50692 24.1525 3.27013C24.7342 3.02087 25.3538 2.89624 26.0114 2.89624C27.023 2.89624 27.9145 3.17042 28.6859 3.71879C29.4699 4.26715 29.9631 5.00246 30.1654 5.92471L28.8376 6.42946C28.6732 5.56952 28.3318 4.92769 27.8134 4.50395C27.3075 4.06775 26.6816 3.84965 25.9355 3.84965C25.063 3.84965 24.3422 4.19861 23.7731 4.89653C23.2167 5.58199 22.9385 6.53539 22.9385 7.75675C22.9385 8.99057 23.2294 9.95021 23.8111 10.6357C24.3928 11.3087 25.1072 11.6452 25.9545 11.6452C26.7132 11.6452 27.3392 11.4208 27.8323 10.9722C28.3255 10.511 28.6606 9.85051 28.8376 8.99057L30.1654 9.49532C29.9757 10.4425 29.4889 11.2027 28.7049 11.776C27.9335 12.3369 27.0357 12.6173 26.0114 12.6173C25.3538 12.6173 24.7342 12.4989 24.1525 12.2621C23.5835 12.0128 23.0903 11.6763 22.673 11.2526C22.2557 10.8288 21.9269 10.3179 21.6866 9.71965C21.4464 9.12144 21.3263 8.46713 21.3263 7.75675Z" fill="#224CFF"/>
<path d="M36.4922 12.4303H35.0506V4.09267H31.5984V3.08318H39.9444V4.09267H36.4922V12.4303Z" fill="#224CFF"/>
<path d="M42.7601 6.13035L41.4513 5.71908C41.6663 4.7719 42.1152 4.06775 42.798 3.60662C43.4809 3.13303 44.3534 2.89624 45.4156 2.89624C46.6296 2.89624 47.5274 3.1455 48.1091 3.64401C48.6908 4.13006 48.9816 4.87783 48.9816 5.88732V11.2713H50.556V12.4303H47.4263L47.5401 11.2526V10.0001L46.2692 11.8695C45.9531 12.1187 45.5863 12.3057 45.169 12.4303C44.7644 12.5425 44.3471 12.5986 43.9172 12.5986C43.1711 12.5986 42.5514 12.3742 42.0583 11.9256C41.5651 11.4769 41.3185 10.8475 41.3185 10.0375C41.3185 9.2523 41.5525 8.69147 42.0203 8.35497C42.5009 8.00601 43.0636 7.74429 43.7085 7.56981C44.3661 7.39533 45.0489 7.23954 45.7571 7.10245C46.4779 6.96536 47.0722 6.70987 47.5401 6.33599V5.94341C47.5401 5.33273 47.3567 4.85291 46.99 4.50395C46.6359 4.14253 46.0795 3.96181 45.3208 3.96181C44.5241 3.96181 43.9424 4.14253 43.5757 4.50395C43.209 4.85291 42.9371 5.39504 42.7601 6.13035ZM42.8549 9.83182C42.8549 10.3677 43.0067 10.7852 43.3102 11.0843C43.6263 11.371 44.0183 11.5143 44.4862 11.5143C45.1058 11.5143 45.6685 11.3336 46.1744 10.9722C46.6928 10.6107 47.1481 10.0125 47.5401 9.17752V6.59771C47.1986 6.99652 46.7624 7.2894 46.2313 7.47634C45.7002 7.65082 45.1817 7.8253 44.6759 7.99978C44.1827 8.1618 43.7528 8.37366 43.386 8.63538C43.032 8.8971 42.8549 9.29591 42.8549 9.83182Z" fill="#224CFF"/>
<path d="M60.3966 9.79443C60.3966 10.6419 60.0931 11.2962 59.4861 11.7573C58.8792 12.206 57.9497 12.4303 56.6978 12.4303H52.8663V3.08318H56.5271C57.7284 3.08318 58.5946 3.28882 59.1257 3.70009C59.6568 4.11137 59.9224 4.66597 59.9224 5.36389C59.9224 5.81255 59.7959 6.23005 59.543 6.6164C59.3028 6.99029 58.8855 7.2894 58.2911 7.51373C59.0499 7.70067 59.5873 7.99355 59.9034 8.39236C60.2322 8.79117 60.3966 9.25853 60.3966 9.79443ZM56.565 4.09267H54.3078V7.17723H56.6978C57.2416 7.17723 57.6715 7.02768 57.9877 6.72857C58.3164 6.417 58.4808 6.03065 58.4808 5.56952C58.4808 5.08347 58.3228 4.71582 58.0066 4.46656C57.6905 4.2173 57.21 4.09267 56.565 4.09267ZM56.7168 7.94369H54.3078V11.4208H56.6409C57.3996 11.4208 57.975 11.2837 58.367 11.0096C58.759 10.7354 58.955 10.2992 58.955 9.70096C58.955 9.16505 58.759 8.74132 58.367 8.42975C57.9877 8.10571 57.4376 7.94369 56.7168 7.94369Z" fill="#224CFF"/>
<path d="M64.1994 12.4303H62.7578V3.08318H64.1994V7.15854H69.0742V3.08318H70.5158V12.4303H69.0742V8.16803H64.1994V12.4303Z" fill="#224CFF"/>
<path d="M74.9987 12.4303H73.5571V3.08318H74.9987V10.617L80.139 3.08318H81.5806V12.4303H80.139V4.89653L74.9987 12.4303Z" fill="#224CFF"/>
<path d="M90.97 12.4303L86.0572 7.99978V12.4303H84.6156V3.08318H86.0572V7.2894L90.6854 3.08318H92.4305L87.4798 7.53242L92.8099 12.4303H90.97Z" fill="#224CFF"/>
<path d="M96.3788 12.4303H94.52V10.6357H96.3788V12.4303Z" fill="#224CFF"/>
<path d="M100.617 12.4303H99.1752V3.08318H106.781V12.4303H105.34V4.09267H100.617V12.4303Z" fill="#224CFF"/>
<path d="M114.796 12.6173C113.911 12.6173 113.146 12.3493 112.501 11.8134C111.869 11.265 111.452 10.4861 111.249 9.47663V17.1039H109.808V3.08318H111.249V5.99949C111.464 4.99 111.882 4.22353 112.501 3.70009C113.133 3.16419 113.886 2.89624 114.758 2.89624C115.264 2.89624 115.757 2.99594 116.238 3.19535C116.718 3.39475 117.142 3.69386 117.509 4.09267C117.875 4.47902 118.166 4.97754 118.381 5.58822C118.609 6.1989 118.723 6.91551 118.723 7.73806C118.723 8.56061 118.609 9.27722 118.381 9.8879C118.166 10.4986 117.875 11.0096 117.509 11.4208C117.155 11.8196 116.737 12.1188 116.257 12.3182C115.789 12.5176 115.302 12.6173 114.796 12.6173ZM117.129 7.75675C117.129 7.10868 117.047 6.54786 116.883 6.07427C116.718 5.58822 116.503 5.18941 116.238 4.87783C115.972 4.5538 115.656 4.31701 115.289 4.16745C114.935 4.00543 114.562 3.92443 114.17 3.92443C113.336 3.92443 112.64 4.24846 112.084 4.89653C111.54 5.5446 111.268 6.498 111.268 7.75675C111.268 9.0155 111.546 9.97514 112.103 10.6357C112.659 11.2962 113.374 11.6265 114.246 11.6265C115.018 11.6265 115.688 11.3087 116.257 10.6731C116.839 10.025 117.129 9.05289 117.129 7.75675Z" fill="#224CFF"/>
<path d="M125.353 2.89624C125.998 2.89624 126.598 3.01464 127.155 3.25143C127.724 3.48823 128.217 3.82472 128.634 4.26092C129.064 4.68466 129.399 5.19564 129.64 5.79385C129.88 6.39207 130 7.04637 130 7.75675C130 8.46713 129.88 9.12144 129.64 9.71965C129.399 10.3179 129.071 10.8351 128.653 11.2713C128.236 11.695 127.743 12.0253 127.174 12.2621C126.605 12.4989 125.998 12.6173 125.353 12.6173C124.708 12.6173 124.101 12.4989 123.532 12.2621C122.963 12.0253 122.47 11.695 122.052 11.2713C121.635 10.8351 121.3 10.3179 121.047 9.71965C120.807 9.12144 120.687 8.46713 120.687 7.75675C120.687 7.04637 120.807 6.39207 121.047 5.79385C121.3 5.19564 121.635 4.68466 122.052 4.26092C122.47 3.82472 122.963 3.48823 123.532 3.25143C124.101 3.01464 124.708 2.89624 125.353 2.89624ZM125.372 3.86834C124.474 3.86834 123.734 4.20484 123.153 4.87783C122.583 5.53837 122.299 6.498 122.299 7.75675C122.299 8.92826 122.583 9.86921 123.153 10.5796C123.734 11.29 124.474 11.6452 125.372 11.6452C126.282 11.6452 127.009 11.29 127.553 10.5796C128.11 9.86921 128.388 8.92826 128.388 7.75675C128.388 6.498 128.11 5.53837 127.553 4.87783C127.009 4.20484 126.282 3.86834 125.372 3.86834Z" fill="#224CFF"/>
</svg>
