<svg width="183" height="31" fill="none" xmlns="http://www.w3.org/2000/svg"><path d="M2.03 24.057H0V10.9h2.03v5.736h6.862V10.9h2.029v13.157H8.89v-6H2.03v6zM16.777 15.189l-1.842-.579c.303-1.333.934-2.324 1.896-2.974.961-.666 2.19-1 3.685-1 1.708 0 2.972.351 3.791 1.053.819.684 1.228 1.737 1.228 3.158v7.579h2.217v1.631h-4.406l.16-1.657v-1.764l-1.789 2.632c-.445.35-.961.614-1.549.79a6.566 6.566 0 01-1.762.236c-1.05 0-1.922-.316-2.617-.947-.694-.632-1.04-1.518-1.04-2.658 0-1.105.328-1.895.987-2.368.677-.492 1.469-.86 2.376-1.106a43.454 43.454 0 012.884-.658c1.015-.193 1.852-.552 2.51-1.078v-.553c0-.86-.258-1.535-.774-2.027-.499-.508-1.282-.763-2.35-.763-1.121 0-1.94.255-2.457.764-.516.49-.898 1.254-1.148 2.289zm.134 5.21c0 .755.213 1.343.64 1.764.446.403.998.605 1.656.605.872 0 1.665-.255 2.377-.763.73-.509 1.37-1.351 1.922-2.526v-3.632c-.48.561-1.095.974-1.842 1.237-.748.245-1.478.49-2.19.737-.694.228-1.3.526-1.816.894-.498.369-.747.93-.747 1.684zM30.02 17.479c0-1 .17-1.922.508-2.764a6.47 6.47 0 011.389-2.158 6.267 6.267 0 012.082-1.394 6.573 6.573 0 012.617-.527c1.424 0 2.68.386 3.765 1.158 1.104.772 1.798 1.807 2.083 3.105l-1.87.711c-.23-1.21-.712-2.114-1.441-2.71-.712-.614-1.593-.921-2.644-.921-1.228 0-2.243.49-3.044 1.473-.783.965-1.175 2.307-1.175 4.027 0 1.736.41 3.087 1.229 4.052.819.948 1.824 1.421 3.017 1.421 1.068 0 1.95-.316 2.643-.947.695-.65 1.166-1.58 1.415-2.79l1.87.71c-.267 1.334-.953 2.404-2.056 3.211-1.086.79-2.35 1.185-3.792 1.185a6.874 6.874 0 01-2.617-.5 6.615 6.615 0 01-2.082-1.422 6.47 6.47 0 01-1.389-2.157c-.338-.843-.507-1.764-.507-2.764zM51.37 24.057h-2.03V12.321h-4.86V10.9h11.75v1.42h-4.86v11.737zM60.193 15.189l-1.842-.579c.302-1.333.934-2.324 1.895-2.974.962-.666 2.19-1 3.685-1 1.71 0 2.973.351 3.792 1.053.819.684 1.228 1.737 1.228 3.158v7.579h2.216v1.631h-4.405l.16-1.657v-1.764l-1.79 2.632c-.444.35-.96.614-1.548.79a6.566 6.566 0 01-1.762.236c-1.05 0-1.923-.316-2.617-.947-.694-.632-1.041-1.518-1.041-2.658 0-1.105.33-1.895.988-2.368.676-.492 1.468-.86 2.376-1.106a43.454 43.454 0 012.884-.658c1.014-.193 1.851-.552 2.51-1.078v-.553c0-.86-.258-1.535-.775-2.027-.498-.508-1.281-.763-2.35-.763-1.12 0-1.94.255-2.456.764-.516.49-.899 1.254-1.148 2.289zm.134 5.21c0 .755.213 1.343.64 1.764.445.403.997.605 1.656.605.872 0 1.664-.255 2.376-.763.73-.509 1.37-1.351 1.923-2.526v-3.632c-.48.561-1.095.974-1.843 1.237-.747.245-1.477.49-2.19.737-.693.228-1.299.526-1.815.894-.498.369-.747.93-.747 1.684zM85.02 20.347c0 1.193-.427 2.114-1.282 2.763-.854.632-2.163.947-3.925.947H74.42V10.9h5.154c1.69 0 2.91.289 3.658.868.748.579 1.121 1.36 1.121 2.342 0 .632-.178 1.22-.534 1.763-.338.527-.925.948-1.762 1.263 1.068.264 1.825.676 2.27 1.237.462.562.694 1.22.694 1.974zm-5.394-8.026H76.45v4.342h3.364c.766 0 1.37-.21 1.816-.632.463-.438.694-.982.694-1.631 0-.685-.222-1.202-.667-1.553-.446-.351-1.122-.526-2.03-.526zm.214 5.42h-3.391v4.895h3.284c1.068 0 1.878-.193 2.43-.579.552-.386.828-1 .828-1.842 0-.754-.276-1.35-.828-1.79-.534-.455-1.309-.683-2.323-.683zM90.373 24.057h-2.03V10.9h2.03v5.736h6.862V10.9h2.03v13.157h-2.03v-6h-6.862v6zM105.575 24.057h-2.029V10.9h2.029v10.605l7.236-10.605h2.029v13.157h-2.029V13.452l-7.236 10.605zM128.058 24.057l-6.916-6.236v6.236h-2.029V10.9h2.029v5.92l6.515-5.92h2.457l-6.969 6.263 7.503 6.894h-2.59zM135.672 24.057h-2.617v-2.526h2.617v2.526zM141.637 24.057h-2.029V10.9h10.707v13.157h-2.029V12.321h-6.649v11.736zM161.598 24.32c-1.246 0-2.323-.377-3.231-1.131-.89-.772-1.477-1.868-1.762-3.29v10.737h-2.03V10.9h2.03v4.105c.302-1.421.89-2.5 1.762-3.237.89-.755 1.949-1.132 3.177-1.132.713 0 1.407.14 2.083.421.677.281 1.273.702 1.789 1.264.516.543.926 1.245 1.228 2.105.321.86.481 1.868.481 3.026 0 1.158-.16 2.167-.481 3.026-.302.86-.712 1.58-1.228 2.158a4.783 4.783 0 01-1.762 1.264 5.194 5.194 0 01-2.056.42zm3.284-6.841c0-.913-.116-1.702-.347-2.369-.231-.684-.534-1.246-.908-1.684a3.345 3.345 0 00-1.335-1 3.74 3.74 0 00-1.575-.342c-1.175 0-2.154.456-2.937 1.368-.766.912-1.149 2.255-1.149 4.027 0 1.771.392 3.122 1.175 4.052.784.93 1.789 1.395 3.018 1.395 1.085 0 2.029-.447 2.83-1.342.819-.913 1.228-2.281 1.228-4.105zM176.458 10.636c.908 0 1.754.167 2.537.5a6.088 6.088 0 012.083 1.421 6.28 6.28 0 011.415 2.158c.338.842.507 1.764.507 2.764 0 1-.169 1.92-.507 2.763a6.777 6.777 0 01-1.389 2.184 6.256 6.256 0 01-2.083 1.395c-.801.333-1.655.5-2.563.5a6.603 6.603 0 01-2.563-.5 6.276 6.276 0 01-2.083-1.395 7.159 7.159 0 01-1.415-2.184c-.338-.843-.507-1.764-.507-2.764 0-1 .169-1.92.507-2.763a6.828 6.828 0 011.415-2.158 6.088 6.088 0 012.083-1.42 6.601 6.601 0 012.563-.5zm.027 1.369c-1.264 0-2.305.473-3.124 1.42-.801.93-1.202 2.281-1.202 4.053 0 1.65.401 2.974 1.202 3.974.819 1 1.86 1.5 3.124 1.5 1.282 0 2.305-.5 3.071-1.5.783-1 1.174-2.324 1.174-3.974 0-1.772-.391-3.122-1.174-4.052-.766-.947-1.789-1.421-3.071-1.421z" fill="#224CFF"/></svg>