<svg width="183" height="21" viewBox="0 0 183 21" fill="none" xmlns="http://www.w3.org/2000/svg">
<path d="M2.0293 14.0574H0V0.899527H2.0293V6.63637H8.89153V0.899527H10.9208V14.0574H8.89153V8.05742H2.0293V14.0574Z" fill="#2E2468"/>
<path d="M16.7774 5.189L14.935 4.61005C15.2376 3.27672 15.8695 2.28549 16.8308 1.63637C17.792 0.969702 19.0203 0.636368 20.5156 0.636368C22.2244 0.636368 23.4883 0.987245 24.3071 1.689C25.126 2.37321 25.5354 3.42584 25.5354 4.84689V12.4258H27.7516V14.0574H23.3459L23.5061 12.3995V10.6364L21.7171 13.2679C21.2721 13.6188 20.7559 13.882 20.1684 14.0574C19.5988 14.2153 19.0114 14.2943 18.4062 14.2943C17.3559 14.2943 16.4837 13.9785 15.7894 13.3469C15.0952 12.7153 14.7481 11.8294 14.7481 10.689C14.7481 9.58374 15.0774 8.79426 15.736 8.32058C16.4125 7.82935 17.2046 7.46093 18.1124 7.21532C19.0381 6.9697 19.9993 6.7504 20.9962 6.55742C22.0108 6.36444 22.8475 6.00479 23.5061 5.47847V4.92584C23.5061 4.06619 23.248 3.39075 22.7318 2.89953C22.2333 2.39075 21.4501 2.13637 20.3821 2.13637C19.2606 2.13637 18.4418 2.39075 17.9255 2.89953C17.4093 3.39075 17.0266 4.15391 16.7774 5.189ZM16.9109 10.3995C16.9109 11.1539 17.1245 11.7416 17.5517 12.1627C17.9967 12.5662 18.5486 12.7679 19.2072 12.7679C20.0794 12.7679 20.8716 12.5136 21.5836 12.0048C22.3134 11.496 22.9543 10.6539 23.5061 9.47847V5.84689C23.0255 6.4083 22.4114 6.82058 21.6637 7.08374C20.9161 7.32935 20.1862 7.57497 19.4742 7.82058C18.78 8.04865 18.1747 8.34689 17.6585 8.71532C17.1601 9.08374 16.9109 9.64514 16.9109 10.3995Z" fill="#2E2468"/>
<path d="M30.0208 7.47847C30.0208 6.47847 30.1899 5.55742 30.5281 4.71532C30.8663 3.87321 31.3292 3.15391 31.9166 2.55742C32.504 1.96093 33.1983 1.49602 33.9993 1.16268C34.8181 0.811807 35.6904 0.636368 36.616 0.636368C38.0401 0.636368 39.2951 1.02233 40.3809 1.79426C41.4846 2.56619 42.1788 3.60128 42.4636 4.89953L40.5945 5.61005C40.3631 4.39953 39.8825 3.49602 39.1526 2.89953C38.4406 2.28549 37.5595 1.97847 36.5092 1.97847C35.281 1.97847 34.2663 2.4697 33.4653 3.45216C32.682 4.41707 32.2904 5.75918 32.2904 7.47847C32.2904 9.21532 32.6998 10.5662 33.5187 11.5311C34.3375 12.4785 35.3433 12.9522 36.5359 12.9522C37.604 12.9522 38.4851 12.6364 39.1793 12.0048C39.8736 11.3557 40.3453 10.4258 40.5945 9.21531L42.4636 9.92584C42.1966 11.2592 41.5113 12.3294 40.4076 13.1364C39.3218 13.9258 38.0579 14.3206 36.616 14.3206C35.6904 14.3206 34.8181 14.1539 33.9993 13.8206C33.1983 13.4697 32.504 12.996 31.9166 12.3995C31.3292 11.803 30.8663 11.0837 30.5281 10.2416C30.1899 9.39953 30.0208 8.47847 30.0208 7.47847Z" fill="#2E2468"/>
<path d="M51.3697 14.0574H49.3404V2.32058H44.4808V0.899527H56.2294V2.32058H51.3697V14.0574Z" fill="#2E2468"/>
<path d="M60.1931 5.189L58.3507 4.61005C58.6533 3.27672 59.2852 2.28549 60.2465 1.63637C61.2077 0.969702 62.436 0.636368 63.9312 0.636368C65.6401 0.636368 66.904 0.987245 67.7228 1.689C68.5417 2.37321 68.9511 3.42584 68.9511 4.84689V12.4258H71.1673V14.0574H66.7616L66.9218 12.3995V10.6364L65.1328 13.2679C64.6878 13.6188 64.1715 13.882 63.5841 14.0574C63.0145 14.2153 62.4271 14.2943 61.8218 14.2943C60.7716 14.2943 59.8993 13.9785 59.2051 13.3469C58.5109 12.7153 58.1638 11.8294 58.1638 10.689C58.1638 9.58374 58.4931 8.79426 59.1517 8.32058C59.8281 7.82935 60.6203 7.46093 61.5281 7.21532C62.4538 6.9697 63.415 6.7504 64.4119 6.55742C65.4265 6.36444 66.2631 6.00479 66.9218 5.47847V4.92584C66.9218 4.06619 66.6637 3.39075 66.1474 2.89953C65.649 2.39075 64.8658 2.13637 63.7977 2.13637C62.6763 2.13637 61.8574 2.39075 61.3412 2.89953C60.825 3.39075 60.4423 4.15391 60.1931 5.189ZM60.3266 10.3995C60.3266 11.1539 60.5402 11.7416 60.9674 12.1627C61.4124 12.5662 61.9642 12.7679 62.6229 12.7679C63.4951 12.7679 64.2873 12.5136 64.9993 12.0048C65.7291 11.496 66.3699 10.6539 66.9218 9.47847V5.84689C66.4412 6.4083 65.827 6.82058 65.0794 7.08374C64.3318 7.32935 63.6019 7.57497 62.8899 7.82058C62.1957 8.04865 61.5904 8.34689 61.0742 8.71532C60.5758 9.08374 60.3266 9.64514 60.3266 10.3995Z" fill="#2E2468"/>
<path d="M85.0198 10.3469C85.0198 11.5399 84.5926 12.4609 83.7382 13.1101C82.8837 13.7416 81.5754 14.0574 79.8131 14.0574H74.4194V0.899527H79.5728C81.2638 0.899527 82.4832 1.189 83.2309 1.76795C83.9785 2.3469 84.3523 3.1276 84.3523 4.11005C84.3523 4.74163 84.1743 5.32935 83.8183 5.87321C83.4801 6.39953 82.8926 6.82058 82.056 7.13637C83.124 7.39953 83.8806 7.81181 84.3256 8.37321C84.7884 8.93461 85.0198 9.59251 85.0198 10.3469ZM79.6262 2.32058H76.4487V6.66268H79.8131C80.5785 6.66268 81.1837 6.45216 81.6288 6.0311C82.0916 5.59251 82.323 5.04865 82.323 4.39953C82.323 3.71532 82.1005 3.19777 81.6555 2.84689C81.2104 2.49602 80.534 2.32058 79.6262 2.32058ZM79.8398 7.74163H76.4487V12.6364H79.733C80.801 12.6364 81.611 12.4434 82.1628 12.0574C82.7146 11.6715 82.9905 11.0574 82.9905 10.2153C82.9905 9.46093 82.7146 8.86444 82.1628 8.42584C81.6288 7.9697 80.8544 7.74163 79.8398 7.74163Z" fill="#2E2468"/>
<path d="M90.373 14.0574H88.3437V0.899527H90.373V6.63637H97.2353V0.899527H99.2646V14.0574H97.2353V8.05742H90.373V14.0574Z" fill="#2E2468"/>
<path d="M105.575 14.0574H103.546V0.899527H105.575V11.5048L112.811 0.899527H114.84V14.0574H112.811V3.45216L105.575 14.0574Z" fill="#2E2468"/>
<path d="M128.058 14.0574L121.142 7.82058V14.0574H119.113V0.899527H121.142V6.82058L127.657 0.899527H130.114L123.145 7.16268L130.648 14.0574H128.058Z" fill="#2E2468"/>
<path d="M135.672 14.0574H133.055V11.5311H135.672V14.0574Z" fill="#2E2468"/>
<path d="M141.637 14.0574H139.608V0.899527H150.315V14.0574H148.286V2.32058H141.637V14.0574Z" fill="#2E2468"/>
<path d="M161.598 14.3206C160.352 14.3206 159.275 13.9434 158.367 13.189C157.477 12.4171 156.89 11.3206 156.605 9.89953V20.6364H154.575V0.899527H156.605V5.00479C156.907 3.58374 157.495 2.50479 158.367 1.76795C159.257 1.01356 160.316 0.636368 161.544 0.636368C162.257 0.636368 162.951 0.776719 163.627 1.05742C164.304 1.33812 164.9 1.75918 165.416 2.32058C165.932 2.86444 166.342 3.56619 166.644 4.42584C166.965 5.28549 167.125 6.29426 167.125 7.45216C167.125 8.61005 166.965 9.61882 166.644 10.4785C166.342 11.3381 165.932 12.0574 165.416 12.6364C164.918 13.1978 164.33 13.6188 163.654 13.8995C162.995 14.1802 162.31 14.3206 161.598 14.3206ZM164.882 7.47847C164.882 6.56619 164.766 5.77672 164.535 5.11005C164.304 4.42584 164.001 3.86444 163.627 3.42584C163.253 2.9697 162.808 2.63637 162.292 2.42584C161.794 2.19777 161.269 2.08374 160.717 2.08374C159.542 2.08374 158.563 2.53988 157.78 3.45216C157.014 4.36444 156.631 5.70654 156.631 7.47847C156.631 9.2504 157.023 10.6013 157.806 11.5311C158.59 12.4609 159.595 12.9258 160.824 12.9258C161.909 12.9258 162.853 12.4785 163.654 11.5837C164.473 10.6715 164.882 9.30303 164.882 7.47847Z" fill="#2E2468"/>
<path d="M176.458 0.636368C177.366 0.636368 178.212 0.803035 178.995 1.13637C179.796 1.4697 180.49 1.94339 181.078 2.55742C181.683 3.15391 182.154 3.87321 182.493 4.71532C182.831 5.55742 183 6.47847 183 7.47847C183 8.47847 182.831 9.39953 182.493 10.2416C182.154 11.0837 181.692 11.8118 181.104 12.4258C180.517 13.0223 179.823 13.4872 179.021 13.8206C178.22 14.1539 177.366 14.3206 176.458 14.3206C175.55 14.3206 174.696 14.1539 173.895 13.8206C173.094 13.4872 172.4 13.0223 171.812 12.4258C171.225 11.8118 170.753 11.0837 170.397 10.2416C170.059 9.39953 169.89 8.47847 169.89 7.47847C169.89 6.47847 170.059 5.55742 170.397 4.71532C170.753 3.87321 171.225 3.15391 171.812 2.55742C172.4 1.94339 173.094 1.4697 173.895 1.13637C174.696 0.803035 175.55 0.636368 176.458 0.636368ZM176.485 2.00479C175.221 2.00479 174.18 2.47847 173.361 3.42584C172.56 4.35567 172.159 5.70654 172.159 7.47847C172.159 9.1276 172.56 10.4522 173.361 11.4522C174.18 12.4522 175.221 12.9522 176.485 12.9522C177.767 12.9522 178.79 12.4522 179.556 11.4522C180.339 10.4522 180.73 9.1276 180.73 7.47847C180.73 5.70654 180.339 4.35567 179.556 3.42584C178.79 2.47847 177.767 2.00479 176.485 2.00479Z" fill="#2E2468"/>
</svg>
